<svg width="36" height="36" viewBox="0 0 36 36" fill="none" xmlns="http://www.w3.org/2000/svg">
<circle opacity="0.1" cx="18" cy="18" r="18" fill="#E78282"/>
<path d="M12 23.0001C12 23.3514 12 23.527 12.0157 23.6797C12.1457 24.9475 13.0626 25.9947 14.3021 26.2912C14.4513 26.3269 14.6255 26.3501 14.9737 26.3966L21.5656 27.2755C23.442 27.5257 24.3803 27.6508 25.1084 27.3612C25.7478 27.107 26.2803 26.6408 26.6168 26.0407C27 25.3572 27 24.4106 27 22.5176V13.4826C27 11.5895 27 10.643 26.6168 9.95947C26.2803 9.35936 25.7478 8.89313 25.1084 8.63892C24.3803 8.34938 23.442 8.47448 21.5656 8.72467L14.9737 9.60359C14.6255 9.65002 14.4514 9.67324 14.3021 9.70895C13.0626 10.0054 12.1457 11.0527 12.0157 12.3204C12 12.4731 12 12.6488 12 13.0001M18 14.0001L22 18.0001M22 18.0001L18 22.0001M22 18.0001H9" stroke="#E78282" stroke-width="2" stroke-linecap="round" stroke-linejoin="round"/>
</svg>
