<svg width="12" height="17" viewBox="0 0 12 17" fill="none" xmlns="http://www.w3.org/2000/svg">
    <g filter="url(#filter0_i_137_155)">
        <path
            d="M5.52526 2.87216C5.43269 2.53501 5.47785 2.17489 5.6508 1.87102C5.82375 1.56716 6.11032 1.34445 6.44748 1.25188C6.78464 1.15931 7.14476 1.20447 7.44862 1.37742C7.75248 1.55037 7.97519 1.83694 8.06776 2.1741L8.6162 4.16929V3.60116C8.6162 3.25386 8.75416 2.92078 8.99974 2.67521C9.24532 2.42963 9.5784 2.29166 9.9257 2.29166C10.273 2.29166 10.6061 2.42963 10.8517 2.67521C11.0972 2.92078 11.2352 3.25386 11.2352 3.60116V8.96516C11.2352 9.00229 11.2335 9.03941 11.2307 9.07597V10.1638C11.2307 13.6615 9.80195 15.1999 8.3957 16.0965C7.27126 16.8132 5.10114 17.1552 3.3872 16.2507C2.27682 15.6994 1.38695 14.7645 0.898698 13.7127C0.741411 13.3681 0.726781 12.9753 0.858001 12.62C0.98922 12.2648 1.25564 11.9758 1.59912 11.8162C1.9426 11.6566 2.33527 11.6393 2.69143 11.7681C3.0476 11.897 3.33836 12.1614 3.50026 12.5038C3.87264 13.3054 4.73776 13.9017 5.56407 13.9017C6.14462 13.9017 6.7014 13.671 7.11191 13.2605C7.52242 12.85 7.75304 12.2932 7.75304 11.7127C7.75304 11.1321 7.52242 10.5754 7.11191 10.1649C6.7014 9.75435 6.14462 9.52372 5.56407 9.52372C4.61345 9.52372 3.85857 10.0508 3.54301 10.7972C3.46974 10.9709 3.36296 11.1284 3.22878 11.2607C3.09461 11.3931 2.93566 11.4977 2.76102 11.5686C2.58639 11.6395 2.3995 11.6753 2.21103 11.6739C2.02256 11.6726 1.8362 11.6341 1.66262 11.5606C1.48904 11.4872 1.33163 11.3803 1.19939 11.246C1.06716 11.1117 0.962682 10.9526 0.891945 10.7779C0.821208 10.6032 0.785594 10.4163 0.787139 10.2278C0.788684 10.0394 0.827357 9.85305 0.900948 9.67954C1.48764 8.29297 2.65707 7.28891 4.06782 6.87041L2.0012 3.51229C1.816 3.19022 1.76354 2.80869 1.85493 2.44859C1.94632 2.0885 2.17438 1.77816 2.49075 1.58339C2.80712 1.38863 3.18691 1.32475 3.54958 1.40531C3.91225 1.48587 4.22929 1.70452 4.43345 2.01491L5.98032 4.52872L5.52526 2.87216Z"
            fill="#FFC03A" />
        <path
            d="M5.52526 2.87216C5.43269 2.53501 5.47785 2.17489 5.6508 1.87102C5.82375 1.56716 6.11032 1.34445 6.44748 1.25188C6.78464 1.15931 7.14476 1.20447 7.44862 1.37742C7.75248 1.55037 7.97519 1.83694 8.06776 2.1741L8.6162 4.16929V3.60116C8.6162 3.25386 8.75416 2.92078 8.99974 2.67521C9.24532 2.42963 9.5784 2.29166 9.9257 2.29166C10.273 2.29166 10.6061 2.42963 10.8517 2.67521C11.0972 2.92078 11.2352 3.25386 11.2352 3.60116V8.96516C11.2352 9.00229 11.2335 9.03941 11.2307 9.07597V10.1638C11.2307 13.6615 9.80195 15.1999 8.3957 16.0965C7.27126 16.8132 5.10114 17.1552 3.3872 16.2507C2.27682 15.6994 1.38695 14.7645 0.898698 13.7127C0.741411 13.3681 0.726781 12.9753 0.858001 12.62C0.98922 12.2648 1.25564 11.9758 1.59912 11.8162C1.9426 11.6566 2.33527 11.6393 2.69143 11.7681C3.0476 11.897 3.33836 12.1614 3.50026 12.5038C3.87264 13.3054 4.73776 13.9017 5.56407 13.9017C6.14462 13.9017 6.7014 13.671 7.11191 13.2605C7.52242 12.85 7.75304 12.2932 7.75304 11.7127C7.75304 11.1321 7.52242 10.5754 7.11191 10.1649C6.7014 9.75435 6.14462 9.52372 5.56407 9.52372C4.61345 9.52372 3.85857 10.0508 3.54301 10.7972C3.46974 10.9709 3.36296 11.1284 3.22878 11.2607C3.09461 11.3931 2.93566 11.4977 2.76102 11.5686C2.58639 11.6395 2.3995 11.6753 2.21103 11.6739C2.02256 11.6726 1.8362 11.6341 1.66262 11.5606C1.48904 11.4872 1.33163 11.3803 1.19939 11.246C1.06716 11.1117 0.962682 10.9526 0.891945 10.7779C0.821208 10.6032 0.785594 10.4163 0.787139 10.2278C0.788684 10.0394 0.827357 9.85305 0.900948 9.67954C1.48764 8.29297 2.65707 7.28891 4.06782 6.87041L2.0012 3.51229C1.816 3.19022 1.76354 2.80869 1.85493 2.44859C1.94632 2.0885 2.17438 1.77816 2.49075 1.58339C2.80712 1.38863 3.18691 1.32475 3.54958 1.40531C3.91225 1.48587 4.22929 1.70452 4.43345 2.01491L5.98032 4.52872L5.52526 2.87216Z"
            fill="url(#paint0_radial_137_155)" />
        <path
            d="M5.52526 2.87216C5.43269 2.53501 5.47785 2.17489 5.6508 1.87102C5.82375 1.56716 6.11032 1.34445 6.44748 1.25188C6.78464 1.15931 7.14476 1.20447 7.44862 1.37742C7.75248 1.55037 7.97519 1.83694 8.06776 2.1741L8.6162 4.16929V3.60116C8.6162 3.25386 8.75416 2.92078 8.99974 2.67521C9.24532 2.42963 9.5784 2.29166 9.9257 2.29166C10.273 2.29166 10.6061 2.42963 10.8517 2.67521C11.0972 2.92078 11.2352 3.25386 11.2352 3.60116V8.96516C11.2352 9.00229 11.2335 9.03941 11.2307 9.07597V10.1638C11.2307 13.6615 9.80195 15.1999 8.3957 16.0965C7.27126 16.8132 5.10114 17.1552 3.3872 16.2507C2.27682 15.6994 1.38695 14.7645 0.898698 13.7127C0.741411 13.3681 0.726781 12.9753 0.858001 12.62C0.98922 12.2648 1.25564 11.9758 1.59912 11.8162C1.9426 11.6566 2.33527 11.6393 2.69143 11.7681C3.0476 11.897 3.33836 12.1614 3.50026 12.5038C3.87264 13.3054 4.73776 13.9017 5.56407 13.9017C6.14462 13.9017 6.7014 13.671 7.11191 13.2605C7.52242 12.85 7.75304 12.2932 7.75304 11.7127C7.75304 11.1321 7.52242 10.5754 7.11191 10.1649C6.7014 9.75435 6.14462 9.52372 5.56407 9.52372C4.61345 9.52372 3.85857 10.0508 3.54301 10.7972C3.46974 10.9709 3.36296 11.1284 3.22878 11.2607C3.09461 11.3931 2.93566 11.4977 2.76102 11.5686C2.58639 11.6395 2.3995 11.6753 2.21103 11.6739C2.02256 11.6726 1.8362 11.6341 1.66262 11.5606C1.48904 11.4872 1.33163 11.3803 1.19939 11.246C1.06716 11.1117 0.962682 10.9526 0.891945 10.7779C0.821208 10.6032 0.785594 10.4163 0.787139 10.2278C0.788684 10.0394 0.827357 9.85305 0.900948 9.67954C1.48764 8.29297 2.65707 7.28891 4.06782 6.87041L2.0012 3.51229C1.816 3.19022 1.76354 2.80869 1.85493 2.44859C1.94632 2.0885 2.17438 1.77816 2.49075 1.58339C2.80712 1.38863 3.18691 1.32475 3.54958 1.40531C3.91225 1.48587 4.22929 1.70452 4.43345 2.01491L5.98032 4.52872L5.52526 2.87216Z"
            fill="url(#paint1_radial_137_155)" />
        <path
            d="M5.52526 2.87216C5.43269 2.53501 5.47785 2.17489 5.6508 1.87102C5.82375 1.56716 6.11032 1.34445 6.44748 1.25188C6.78464 1.15931 7.14476 1.20447 7.44862 1.37742C7.75248 1.55037 7.97519 1.83694 8.06776 2.1741L8.6162 4.16929V3.60116C8.6162 3.25386 8.75416 2.92078 8.99974 2.67521C9.24532 2.42963 9.5784 2.29166 9.9257 2.29166C10.273 2.29166 10.6061 2.42963 10.8517 2.67521C11.0972 2.92078 11.2352 3.25386 11.2352 3.60116V8.96516C11.2352 9.00229 11.2335 9.03941 11.2307 9.07597V10.1638C11.2307 13.6615 9.80195 15.1999 8.3957 16.0965C7.27126 16.8132 5.10114 17.1552 3.3872 16.2507C2.27682 15.6994 1.38695 14.7645 0.898698 13.7127C0.741411 13.3681 0.726781 12.9753 0.858001 12.62C0.98922 12.2648 1.25564 11.9758 1.59912 11.8162C1.9426 11.6566 2.33527 11.6393 2.69143 11.7681C3.0476 11.897 3.33836 12.1614 3.50026 12.5038C3.87264 13.3054 4.73776 13.9017 5.56407 13.9017C6.14462 13.9017 6.7014 13.671 7.11191 13.2605C7.52242 12.85 7.75304 12.2932 7.75304 11.7127C7.75304 11.1321 7.52242 10.5754 7.11191 10.1649C6.7014 9.75435 6.14462 9.52372 5.56407 9.52372C4.61345 9.52372 3.85857 10.0508 3.54301 10.7972C3.46974 10.9709 3.36296 11.1284 3.22878 11.2607C3.09461 11.3931 2.93566 11.4977 2.76102 11.5686C2.58639 11.6395 2.3995 11.6753 2.21103 11.6739C2.02256 11.6726 1.8362 11.6341 1.66262 11.5606C1.48904 11.4872 1.33163 11.3803 1.19939 11.246C1.06716 11.1117 0.962682 10.9526 0.891945 10.7779C0.821208 10.6032 0.785594 10.4163 0.787139 10.2278C0.788684 10.0394 0.827357 9.85305 0.900948 9.67954C1.48764 8.29297 2.65707 7.28891 4.06782 6.87041L2.0012 3.51229C1.816 3.19022 1.76354 2.80869 1.85493 2.44859C1.94632 2.0885 2.17438 1.77816 2.49075 1.58339C2.80712 1.38863 3.18691 1.32475 3.54958 1.40531C3.91225 1.48587 4.22929 1.70452 4.43345 2.01491L5.98032 4.52872L5.52526 2.87216Z"
            fill="url(#paint2_radial_137_155)" />
        <path
            d="M5.52526 2.87216C5.43269 2.53501 5.47785 2.17489 5.6508 1.87102C5.82375 1.56716 6.11032 1.34445 6.44748 1.25188C6.78464 1.15931 7.14476 1.20447 7.44862 1.37742C7.75248 1.55037 7.97519 1.83694 8.06776 2.1741L8.6162 4.16929V3.60116C8.6162 3.25386 8.75416 2.92078 8.99974 2.67521C9.24532 2.42963 9.5784 2.29166 9.9257 2.29166C10.273 2.29166 10.6061 2.42963 10.8517 2.67521C11.0972 2.92078 11.2352 3.25386 11.2352 3.60116V8.96516C11.2352 9.00229 11.2335 9.03941 11.2307 9.07597V10.1638C11.2307 13.6615 9.80195 15.1999 8.3957 16.0965C7.27126 16.8132 5.10114 17.1552 3.3872 16.2507C2.27682 15.6994 1.38695 14.7645 0.898698 13.7127C0.741411 13.3681 0.726781 12.9753 0.858001 12.62C0.98922 12.2648 1.25564 11.9758 1.59912 11.8162C1.9426 11.6566 2.33527 11.6393 2.69143 11.7681C3.0476 11.897 3.33836 12.1614 3.50026 12.5038C3.87264 13.3054 4.73776 13.9017 5.56407 13.9017C6.14462 13.9017 6.7014 13.671 7.11191 13.2605C7.52242 12.85 7.75304 12.2932 7.75304 11.7127C7.75304 11.1321 7.52242 10.5754 7.11191 10.1649C6.7014 9.75435 6.14462 9.52372 5.56407 9.52372C4.61345 9.52372 3.85857 10.0508 3.54301 10.7972C3.46974 10.9709 3.36296 11.1284 3.22878 11.2607C3.09461 11.3931 2.93566 11.4977 2.76102 11.5686C2.58639 11.6395 2.3995 11.6753 2.21103 11.6739C2.02256 11.6726 1.8362 11.6341 1.66262 11.5606C1.48904 11.4872 1.33163 11.3803 1.19939 11.246C1.06716 11.1117 0.962682 10.9526 0.891945 10.7779C0.821208 10.6032 0.785594 10.4163 0.787139 10.2278C0.788684 10.0394 0.827357 9.85305 0.900948 9.67954C1.48764 8.29297 2.65707 7.28891 4.06782 6.87041L2.0012 3.51229C1.816 3.19022 1.76354 2.80869 1.85493 2.44859C1.94632 2.0885 2.17438 1.77816 2.49075 1.58339C2.80712 1.38863 3.18691 1.32475 3.54958 1.40531C3.91225 1.48587 4.22929 1.70452 4.43345 2.01491L5.98032 4.52872L5.52526 2.87216Z"
            fill="url(#paint3_radial_137_155)" />
    </g>
    <path
        d="M9.33902 6.77297H11.2352V3.57122C11.2352 3.22392 11.0972 2.89084 10.8517 2.64526C10.6061 2.39968 10.273 2.26172 9.92571 2.26172C9.57841 2.26172 9.24533 2.39968 8.99976 2.64526C8.75418 2.89084 8.61621 3.22392 8.61621 3.57122V4.13934L9.33902 6.77184V6.77297Z"
        fill="url(#paint4_linear_137_155)" />
    <path
        d="M9.33902 6.77297H11.2352V3.57122C11.2352 3.22392 11.0972 2.89084 10.8517 2.64526C10.6061 2.39968 10.273 2.26172 9.92571 2.26172C9.57841 2.26172 9.24533 2.39968 8.99976 2.64526C8.75418 2.89084 8.61621 3.22392 8.61621 3.57122V4.13934L9.33902 6.77184V6.77297Z"
        fill="url(#paint5_linear_137_155)" />
    <path
        d="M9.33902 6.77297H11.2352V3.57122C11.2352 3.22392 11.0972 2.89084 10.8517 2.64526C10.6061 2.39968 10.273 2.26172 9.92571 2.26172C9.57841 2.26172 9.24533 2.39968 8.99976 2.64526C8.75418 2.89084 8.61621 3.22392 8.61621 3.57122V4.13934L9.33902 6.77184V6.77297Z"
        fill="url(#paint6_radial_137_155)" />
    <path
        d="M9.33902 6.77297H11.2352V3.57122C11.2352 3.22392 11.0972 2.89084 10.8517 2.64526C10.6061 2.39968 10.273 2.26172 9.92571 2.26172C9.57841 2.26172 9.24533 2.39968 8.99976 2.64526C8.75418 2.89084 8.61621 3.22392 8.61621 3.57122V4.13934L9.33902 6.77184V6.77297Z"
        fill="url(#paint7_linear_137_155)" />
    <path
        d="M9.33902 6.77297H11.2352V3.57122C11.2352 3.22392 11.0972 2.89084 10.8517 2.64526C10.6061 2.39968 10.273 2.26172 9.92571 2.26172C9.57841 2.26172 9.24533 2.39968 8.99976 2.64526C8.75418 2.89084 8.61621 3.22392 8.61621 3.57122V4.13934L9.33902 6.77184V6.77297Z"
        fill="url(#paint8_linear_137_155)" />
    <path
        d="M5.52523 2.87216C5.43266 2.53501 5.47782 2.17489 5.65077 1.87102C5.82371 1.56716 6.11029 1.34445 6.44745 1.25188C6.7846 1.15931 7.14472 1.20447 7.44858 1.37742C7.75245 1.55037 7.97516 1.83694 8.06773 2.1741L9.31198 6.77197H7.26166C7.22791 6.62066 7.1981 6.50647 7.11204 6.36697L5.98029 4.52872L5.52523 2.87216Z"
        fill="url(#paint9_linear_137_155)" />
    <path
        d="M5.52523 2.87216C5.43266 2.53501 5.47782 2.17489 5.65077 1.87102C5.82371 1.56716 6.11029 1.34445 6.44745 1.25188C6.7846 1.15931 7.14472 1.20447 7.44858 1.37742C7.75245 1.55037 7.97516 1.83694 8.06773 2.1741L9.31198 6.77197H7.26166C7.22791 6.62066 7.1981 6.50647 7.11204 6.36697L5.98029 4.52872L5.52523 2.87216Z"
        fill="url(#paint10_linear_137_155)" />
    <path
        d="M5.52523 2.87216C5.43266 2.53501 5.47782 2.17489 5.65077 1.87102C5.82371 1.56716 6.11029 1.34445 6.44745 1.25188C6.7846 1.15931 7.14472 1.20447 7.44858 1.37742C7.75245 1.55037 7.97516 1.83694 8.06773 2.1741L9.31198 6.77197H7.26166C7.22791 6.62066 7.1981 6.50647 7.11204 6.36697L5.98029 4.52872L5.52523 2.87216Z"
        fill="url(#paint11_radial_137_155)" />
    <path
        d="M5.52523 2.87216C5.43266 2.53501 5.47782 2.17489 5.65077 1.87102C5.82371 1.56716 6.11029 1.34445 6.44745 1.25188C6.7846 1.15931 7.14472 1.20447 7.44858 1.37742C7.75245 1.55037 7.97516 1.83694 8.06773 2.1741L9.31198 6.77197H7.26166C7.22791 6.62066 7.1981 6.50647 7.11204 6.36697L5.98029 4.52872L5.52523 2.87216Z"
        fill="url(#paint12_linear_137_155)" />
    <path
        d="M2.46862 1.54172C2.14606 1.7404 1.91562 2.05906 1.82796 2.42762C1.7403 2.79618 1.80261 3.18446 2.00118 3.50709L4.06781 6.86522C4.54368 6.72459 5.27043 6.77466 5.78737 6.77466H7.76512C7.13231 6.45178 7.01756 6.18516 6.90168 5.99672L4.43343 2.00972C4.23485 1.6872 3.9163 1.45677 3.54783 1.36911C3.17936 1.28145 2.79116 1.34317 2.46862 1.54172Z"
        fill="url(#paint13_linear_137_155)" />
    <path
        d="M2.46862 1.54172C2.14606 1.7404 1.91562 2.05906 1.82796 2.42762C1.7403 2.79618 1.80261 3.18446 2.00118 3.50709L4.06781 6.86522C4.54368 6.72459 5.27043 6.77466 5.78737 6.77466H7.76512C7.13231 6.45178 7.01756 6.18516 6.90168 5.99672L4.43343 2.00972C4.23485 1.6872 3.9163 1.45677 3.54783 1.36911C3.17936 1.28145 2.79116 1.34317 2.46862 1.54172Z"
        fill="url(#paint14_linear_137_155)" />
    <path
        d="M2.46862 1.54172C2.14606 1.7404 1.91562 2.05906 1.82796 2.42762C1.7403 2.79618 1.80261 3.18446 2.00118 3.50709L4.06781 6.86522C4.54368 6.72459 5.27043 6.77466 5.78737 6.77466H7.76512C7.13231 6.45178 7.01756 6.18516 6.90168 5.99672L4.43343 2.00972C4.23485 1.6872 3.9163 1.45677 3.54783 1.36911C3.17936 1.28145 2.79116 1.34317 2.46862 1.54172Z"
        fill="url(#paint15_linear_137_155)" />
    <path
        d="M2.46862 1.54172C2.14606 1.7404 1.91562 2.05906 1.82796 2.42762C1.7403 2.79618 1.80261 3.18446 2.00118 3.50709L4.06781 6.86522C4.54368 6.72459 5.27043 6.77466 5.78737 6.77466H7.76512C7.13231 6.45178 7.01756 6.18516 6.90168 5.99672L4.43343 2.00972C4.23485 1.6872 3.9163 1.45677 3.54783 1.36911C3.17936 1.28145 2.79116 1.34317 2.46862 1.54172Z"
        fill="url(#paint16_radial_137_155)" />
    <g filter="url(#filter1_f_137_155)">
        <path d="M2.55862 12.6499C3.00525 13.4813 4.02337 14.6445 5.478 14.811"
            stroke="url(#paint17_linear_137_155)" stroke-width="0.84375" stroke-linecap="round" />
    </g>
    <g filter="url(#filter2_f_137_155)">
        <path d="M6.62326 7.0061C8.05595 7.30985 10.7318 8.92985 9.97407 12.9799"
            stroke="url(#paint18_radial_137_155)" stroke-width="1.125" stroke-linecap="round" />
    </g>
    <g filter="url(#filter3_f_137_155)">
        <path d="M3.42599 2.03003L6.88312 7.58753" stroke="url(#paint19_linear_137_155)"
            stroke-width="0.84375" stroke-linecap="round" />
    </g>
    <g filter="url(#filter4_f_137_155)">
        <path d="M7.20206 2.21655L8.85075 8.2263" stroke="url(#paint20_linear_137_155)"
            stroke-width="0.84375" stroke-linecap="round" />
    </g>
    <g filter="url(#filter5_f_137_155)">
        <path d="M10.1541 3.86523V9.79511" stroke="url(#paint21_linear_137_155)"
            stroke-width="0.5625" stroke-linecap="round" />
    </g>
    <defs>
        <filter id="filter0_i_137_155" x="0.769165" y="0.867334" width="10.8035" height="15.9281"
            filterUnits="userSpaceOnUse" color-interpolation-filters="sRGB">
            <feFlood flood-opacity="0" result="BackgroundImageFix" />
            <feBlend mode="normal" in="SourceGraphic" in2="BackgroundImageFix" result="shape" />
            <feColorMatrix in="SourceAlpha" type="matrix"
                values="0 0 0 0 0 0 0 0 0 0 0 0 0 0 0 0 0 0 127 0" result="hardAlpha" />
            <feOffset dx="0.3375" dy="-0.3375" />
            <feGaussianBlur stdDeviation="0.5625" />
            <feComposite in2="hardAlpha" operator="arithmetic" k2="-1" k3="1" />
            <feColorMatrix type="matrix"
                values="0 0 0 0 0.909804 0 0 0 0 0.494118 0 0 0 0 0.301961 0 0 0 1 0" />
            <feBlend mode="normal" in2="shape" result="effect1_innerShadow_137_155" />
        </filter>
        <filter id="filter1_f_137_155" x="1.29291" y="11.3843" width="5.45074" height="4.69238"
            filterUnits="userSpaceOnUse" color-interpolation-filters="sRGB">
            <feFlood flood-opacity="0" result="BackgroundImageFix" />
            <feBlend mode="normal" in="SourceGraphic" in2="BackgroundImageFix" result="shape" />
            <feGaussianBlur stdDeviation="0.421875" result="effect1_foregroundBlur_137_155" />
        </filter>
        <filter id="filter2_f_137_155" x="4.93564" y="5.3186" width="6.85837" height="9.34888"
            filterUnits="userSpaceOnUse" color-interpolation-filters="sRGB">
            <feFlood flood-opacity="0" result="BackgroundImageFix" />
            <feBlend mode="normal" in="SourceGraphic" in2="BackgroundImageFix" result="shape" />
            <feGaussianBlur stdDeviation="0.5625" result="effect1_foregroundBlur_137_155" />
        </filter>
        <filter id="filter3_f_137_155" x="2.16031" y="0.764404" width="5.98849" height="8.08887"
            filterUnits="userSpaceOnUse" color-interpolation-filters="sRGB">
            <feFlood flood-opacity="0" result="BackgroundImageFix" />
            <feBlend mode="normal" in="SourceGraphic" in2="BackgroundImageFix" result="shape" />
            <feGaussianBlur stdDeviation="0.421875" result="effect1_foregroundBlur_137_155" />
        </filter>
        <filter id="filter4_f_137_155" x="5.93634" y="0.950928" width="4.18015" height="8.54102"
            filterUnits="userSpaceOnUse" color-interpolation-filters="sRGB">
            <feFlood flood-opacity="0" result="BackgroundImageFix" />
            <feBlend mode="normal" in="SourceGraphic" in2="BackgroundImageFix" result="shape" />
            <feGaussianBlur stdDeviation="0.421875" result="effect1_foregroundBlur_137_155" />
        </filter>
        <filter id="filter5_f_137_155" x="9.3103" y="3.02148" width="1.6875" height="7.61743"
            filterUnits="userSpaceOnUse" color-interpolation-filters="sRGB">
            <feFlood flood-opacity="0" result="BackgroundImageFix" />
            <feBlend mode="normal" in="SourceGraphic" in2="BackgroundImageFix" result="shape" />
            <feGaussianBlur stdDeviation="0.28125" result="effect1_foregroundBlur_137_155" />
        </filter>
        <radialGradient id="paint0_radial_137_155" cx="0" cy="0" r="1"
            gradientUnits="userSpaceOnUse"
            gradientTransform="translate(2.20876 11.6843) rotate(90) scale(0.299784 0.643281)">
            <stop stop-color="#BE6E00" />
            <stop offset="0.792" stop-color="#BE6E00" stop-opacity="0" />
        </radialGradient>
        <radialGradient id="paint1_radial_137_155" cx="0" cy="0" r="1"
            gradientUnits="userSpaceOnUse"
            gradientTransform="translate(6.28464 12.5764) rotate(52.5999) scale(1.93717 2.37458)">
            <stop offset="0.416" stop-color="#D08C3B" />
            <stop offset="0.882" stop-color="#D08C3B" stop-opacity="0" />
        </radialGradient>
        <radialGradient id="paint2_radial_137_155" cx="0" cy="0" r="1"
            gradientUnits="userSpaceOnUse"
            gradientTransform="translate(6.37765 11.0447) rotate(-38.12) scale(3.31258 3.15182)">
            <stop stop-color="#E17C51" />
            <stop offset="1" stop-color="#E17C51" stop-opacity="0" />
        </radialGradient>
        <radialGradient id="paint3_radial_137_155" cx="0" cy="0" r="1"
            gradientUnits="userSpaceOnUse"
            gradientTransform="translate(12.5433 7.2229) rotate(147.419) scale(6.69442 13.7618)">
            <stop stop-color="#FFE452" />
            <stop offset="1" stop-color="#FFE452" stop-opacity="0" />
        </radialGradient>
        <linearGradient id="paint4_linear_137_155" x1="8.46659" y1="5.29359" x2="10.1608"
            y2="5.29359" gradientUnits="userSpaceOnUse">
            <stop stop-color="#DB8E1E" />
            <stop offset="1" stop-color="#DB8E1E" stop-opacity="0" />
        </linearGradient>
        <linearGradient id="paint5_linear_137_155" x1="8.73884" y1="5.50509" x2="9.27827"
            y2="5.36391" gradientUnits="userSpaceOnUse">
            <stop stop-color="#E37917" />
            <stop offset="1" stop-color="#E37917" stop-opacity="0" />
        </linearGradient>
        <radialGradient id="paint6_radial_137_155" cx="0" cy="0" r="1"
            gradientUnits="userSpaceOnUse"
            gradientTransform="translate(9.27321 6.91753) rotate(-103.646) scale(1.79558 1.32092)">
            <stop stop-color="#FFDD4B" />
            <stop offset="1" stop-color="#FFDD4B" stop-opacity="0" />
        </radialGradient>
        <linearGradient id="paint7_linear_137_155" x1="11.5198" y1="5.80941" x2="10.4584"
            y2="5.80941" gradientUnits="userSpaceOnUse">
            <stop stop-color="#FFDE3F" />
            <stop offset="1" stop-color="#FFDE3F" stop-opacity="0" />
        </linearGradient>
        <linearGradient id="paint8_linear_137_155" x1="11.3275" y1="6.14747" x2="10.9123"
            y2="6.14747" gradientUnits="userSpaceOnUse">
            <stop stop-color="#FAC54C" />
            <stop offset="1" stop-color="#FAC54C" stop-opacity="0" />
        </linearGradient>
        <linearGradient id="paint9_linear_137_155" x1="5.81379" y1="5.4141" x2="7.40904"
            y2="4.90447" gradientUnits="userSpaceOnUse">
            <stop stop-color="#D58430" />
            <stop offset="1" stop-color="#D58430" stop-opacity="0" />
        </linearGradient>
        <linearGradient id="paint10_linear_137_155" x1="6.19685" y1="5.22229" x2="6.70366"
            y2="5.00854" gradientUnits="userSpaceOnUse">
            <stop stop-color="#E37917" />
            <stop offset="1" stop-color="#E37917" stop-opacity="0" />
        </linearGradient>
        <radialGradient id="paint11_radial_137_155" cx="0" cy="0" r="1"
            gradientUnits="userSpaceOnUse"
            gradientTransform="translate(5.2589 1.52061) rotate(41.186) scale(1.71547 3.3218)">
            <stop stop-color="#DEA23E" />
            <stop offset="1" stop-color="#DEA23E" stop-opacity="0" />
        </radialGradient>
        <linearGradient id="paint12_linear_137_155" x1="9.04816" y1="4.67554" x2="7.9586"
            y2="5.09741" gradientUnits="userSpaceOnUse">
            <stop stop-color="#FFE54D" />
            <stop offset="1" stop-color="#FFE54D" stop-opacity="0" />
        </linearGradient>
        <linearGradient id="paint13_linear_137_155" x1="3.17737" y1="5.87803" x2="5.04825"
            y2="4.79353" gradientUnits="userSpaceOnUse">
            <stop stop-color="#D58441" />
            <stop offset="1" stop-color="#EFA230" stop-opacity="0" />
        </linearGradient>
        <linearGradient id="paint14_linear_137_155" x1="6.18281" y1="4.21922" x2="5.32162"
            y2="4.83684" gradientUnits="userSpaceOnUse">
            <stop stop-color="#FFE946" />
            <stop offset="1" stop-color="#FFE946" stop-opacity="0" />
        </linearGradient>
        <linearGradient id="paint15_linear_137_155" x1="7.76512" y1="6.83372" x2="6.6795"
            y2="6.49566" gradientUnits="userSpaceOnUse">
            <stop offset="0.612" stop-color="#FFD747" />
            <stop offset="1" stop-color="#FFD747" stop-opacity="0" />
        </linearGradient>
        <radialGradient id="paint16_radial_137_155" cx="0" cy="0" r="1"
            gradientUnits="userSpaceOnUse"
            gradientTransform="translate(2.26345 1.59176) rotate(54.462) scale(1.99557 2.6132)">
            <stop stop-color="#DEA23E" />
            <stop offset="1" stop-color="#DEA23E" stop-opacity="0" />
        </radialGradient>
        <linearGradient id="paint17_linear_137_155" x1="2.72512" y1="12.6499" x2="6.56925"
            y2="15.2683" gradientUnits="userSpaceOnUse">
            <stop stop-color="#FFD535" />
            <stop offset="1" stop-color="#FFD535" stop-opacity="0" />
        </linearGradient>
        <radialGradient id="paint18_radial_137_155" cx="0" cy="0" r="1"
            gradientUnits="userSpaceOnUse"
            gradientTransform="translate(9.73954 8.92555) rotate(153.789) scale(2.41827 11.6507)">
            <stop stop-color="#FFEB5C" />
            <stop offset="1" stop-color="#FFE94A" stop-opacity="0" />
        </radialGradient>
        <linearGradient id="paint19_linear_137_155" x1="4.91493" y1="3.67872" x2="8.31637"
            y2="8.6349" gradientUnits="userSpaceOnUse">
            <stop stop-color="#FFE746" />
            <stop offset="1" stop-color="#FFE746" stop-opacity="0" />
        </linearGradient>
        <linearGradient id="paint20_linear_137_155" x1="8.37206" y1="3.67905" x2="11.7735"
            y2="8.63524" gradientUnits="userSpaceOnUse">
            <stop stop-color="#FFE746" />
            <stop offset="1" stop-color="#FFE746" stop-opacity="0" />
        </linearGradient>
        <linearGradient id="paint21_linear_137_155" x1="-nan" y1="-nan" x2="-nan" y2="-nan"
            gradientUnits="userSpaceOnUse">
            <stop stop-color="#FFE949" />
            <stop offset="1" stop-color="#FFE949" stop-opacity="0" />
        </linearGradient>
    </defs>
</svg>
