<svg width="39" height="38" viewBox="0 0 39 38" fill="none" xmlns="http://www.w3.org/2000/svg">
<mask id="mask0_214_652" style="mask-type:luminance" maskUnits="userSpaceOnUse" x="1" y="1" width="37" height="36">
<path d="M3.81624 17.5535C3.79726 17.3349 3.82392 17.1148 3.89455 16.907C3.96517 16.6992 4.07822 16.5084 4.2265 16.3467C4.37478 16.1849 4.55507 16.0557 4.75592 15.9674C4.95677 15.879 5.1738 15.8333 5.39324 15.8332H8.41661C8.83654 15.8332 9.23927 16.0001 9.5362 16.297C9.83313 16.5939 9.99995 16.9967 9.99995 17.4166V32.4582C9.99995 32.8782 9.83313 33.2809 9.5362 33.5778C9.23927 33.8748 8.83654 34.0416 8.41661 34.0416H6.70186C6.30558 34.0417 5.92366 33.8932 5.63155 33.6254C5.33943 33.3576 5.15835 32.99 5.12407 32.5952L3.81624 17.5535ZM14.7499 16.9218C14.7499 16.26 15.1616 15.6678 15.7593 15.386C17.0648 14.77 19.2886 13.5327 20.2916 11.8599C21.5844 9.70337 21.8282 5.80758 21.8678 4.91537C21.8734 4.79029 21.8702 4.66521 21.8868 4.54171C22.1014 2.99558 25.0852 4.80137 26.2291 6.71087C26.8506 7.74637 26.9297 9.10725 26.8648 10.1705C26.7944 11.3073 26.4611 12.4053 26.1341 13.4962L25.4374 15.8214H34.0326C34.2772 15.8214 34.5185 15.878 34.7376 15.9869C34.9566 16.0958 35.1474 16.254 35.2951 16.4491C35.4427 16.6441 35.5432 16.8707 35.5885 17.1111C35.6339 17.3515 35.6229 17.5991 35.5565 17.8346L31.3053 32.8889C31.2114 33.2209 31.0117 33.5132 30.7365 33.7213C30.4612 33.9294 30.1256 34.0418 29.7805 34.0416H16.3333C15.9134 34.0416 15.5106 33.8748 15.2137 33.5778C14.9168 33.2809 14.7499 32.8782 14.7499 32.4582V16.9218Z" fill="white" stroke="white" stroke-width="4" stroke-linecap="round" stroke-linejoin="round"/>
</mask>
<g mask="url(#mask0_214_652)">
<path d="M0.5 0H38.5V38H0.5V0Z" fill="#224E4B"/>
</g>
</svg>
