<svg width="14" height="15" viewBox="0 0 14 15" fill="none" xmlns="http://www.w3.org/2000/svg">
    <g clip-path="url(#clip0_204_1786)">
        <path
            d="M10.8109 2.97932C10.9439 3.30089 11.1991 3.5565 11.5205 3.68995L12.6474 4.15673C12.969 4.28994 13.2245 4.54545 13.3577 4.86705C13.4909 5.18865 13.4909 5.54999 13.3577 5.87159L12.8913 6.99768C12.758 7.31943 12.7578 7.68114 12.8917 8.00272L13.3573 9.12848C13.4234 9.28777 13.4574 9.4585 13.4574 9.63093C13.4574 9.80336 13.4235 9.97411 13.3575 10.1334C13.2915 10.2927 13.1948 10.4375 13.0728 10.5594C12.9509 10.6813 12.8061 10.778 12.6468 10.8439L11.5207 11.3103C11.1991 11.4433 10.9435 11.6985 10.8101 12.0199L10.3433 13.1468C10.2101 13.4684 9.95457 13.7239 9.63298 13.8571C9.31138 13.9903 8.95003 13.9903 8.62843 13.8571L7.50234 13.3907C7.18073 13.2578 6.81951 13.2581 6.49811 13.3914L5.3712 13.8575C5.04978 13.9904 4.68875 13.9903 4.36741 13.8572C4.04608 13.7241 3.79071 13.4689 3.65741 13.1477L3.19049 12.0204C3.05752 11.6989 2.8023 11.4432 2.48093 11.3098L1.35402 10.843C1.03256 10.7099 0.77713 10.4545 0.64387 10.1331C0.51061 9.81169 0.510429 9.45051 0.643368 9.12897L1.10981 8.00287C1.24269 7.68126 1.24242 7.32005 1.10906 6.99864L0.643283 5.87093C0.577245 5.71165 0.543241 5.54091 0.543214 5.36848C0.543186 5.19605 0.577135 5.0253 0.643122 4.866C0.709108 4.70669 0.805838 4.56195 0.927785 4.44004C1.04973 4.31814 1.1945 4.22145 1.35383 4.15552L2.47992 3.68907C2.80122 3.55622 3.05667 3.30132 3.19022 2.98032L3.657 1.85341C3.79021 1.53182 4.04572 1.27631 4.36732 1.14309C4.68892 1.00988 5.05026 1.00988 5.37186 1.14309L6.49796 1.60954C6.81957 1.74242 7.18078 1.74215 7.50219 1.60878L8.62957 1.14382C8.95112 1.01068 9.31239 1.01071 9.63393 1.14389C9.95546 1.27708 10.2109 1.53251 10.3442 1.85403L10.8111 2.98127L10.8109 2.97932Z"
            fill="#0788F5" />
        <path fill-rule="evenodd" clip-rule="evenodd"
            d="M9.7416 5.66499C9.83513 5.51809 9.86646 5.34006 9.82872 5.17006C9.79098 5.00006 9.68725 4.85201 9.54035 4.75849C9.39346 4.66497 9.21543 4.63363 9.04542 4.67137C8.87542 4.70911 8.72738 4.81284 8.63385 4.95974L6.06398 8.99786L4.88798 7.52786C4.77926 7.39187 4.62097 7.30464 4.44793 7.28536C4.27489 7.26608 4.10128 7.31633 3.96529 7.42505C3.8293 7.53377 3.74207 7.69206 3.72279 7.8651C3.70351 8.03814 3.75376 8.21175 3.86248 8.34774L5.61248 10.5352C5.6777 10.6169 5.76146 10.6817 5.85681 10.7245C5.95216 10.7672 6.05633 10.7865 6.16065 10.7809C6.26498 10.7752 6.36646 10.7448 6.45663 10.692C6.54681 10.6392 6.62308 10.5657 6.6791 10.4775L9.7416 5.66499Z"
            fill="white" />
    </g>
    <defs>
        <clipPath id="clip0_204_1786">
            <rect width="14" height="14" fill="white" transform="translate(0 0.5)" />
        </clipPath>
    </defs>
</svg>
